# Blender 5.1.0
# www.blender.org
mtllib block_sanguine_rectifier.mtl
o BlockDemonCrystallizer.001
v 0.125000 0.062500 0.875000
v 0.125000 0.000000 0.875000
v 0.875000 0.000000 0.875000
v 0.875000 0.062500 0.875000
v 0.875000 0.062500 0.125000
v 0.875000 0.000000 0.125000
v 0.125000 0.000000 0.125000
v 0.125000 0.062500 0.125000
v 0.187500 0.125000 0.812500
v 0.187500 0.062500 0.812500
v 0.812500 0.062500 0.812500
v 0.812500 0.125000 0.812500
v 0.812500 0.125000 0.187500
v 0.812500 0.062500 0.187500
v 0.187500 0.062500 0.187500
v 0.187500 0.125000 0.187500
v 0.125000 0.187500 0.875000
v 0.125000 0.125000 0.875000
v 0.875000 0.125000 0.875000
v 0.875000 0.187500 0.875000
v 0.875000 0.187500 0.125000
v 0.875000 0.125000 0.125000
v 0.125000 0.125000 0.125000
v 0.125000 0.187500 0.125000
v 0.631420 0.815976 0.370107
v 0.556035 0.136742 0.445037
v 0.742405 0.116307 0.447292
v 0.817789 0.795541 0.372362
v 0.817789 0.774981 0.185992
v 0.742405 0.095747 0.260922
v 0.556035 0.116183 0.258668
v 0.631420 0.795417 0.183738
v 0.580484 0.643738 0.420547
v 0.573631 0.581989 0.427359
v 0.822124 0.554742 0.430365
v 0.828977 0.616490 0.423553
v 0.828977 0.589078 0.175061
v 0.822124 0.527329 0.181873
v 0.573631 0.554577 0.178867
v 0.580484 0.616325 0.172055
v 0.631420 0.795416 0.816259
v 0.556035 0.116189 0.741328
v 0.742405 0.095754 0.739074
v 0.817789 0.774980 0.814004
v 0.817789 0.795540 0.627637
v 0.742405 0.116313 0.552707
v 0.556035 0.136748 0.554961
v 0.631420 0.815975 0.629891
v 0.548960 0.332286 0.796607
v 0.542106 0.270538 0.789795
v 0.790599 0.243291 0.786789
v 0.797452 0.305039 0.793601
v 0.797452 0.332451 0.545111
v 0.790599 0.270704 0.538299
v 0.542106 0.297951 0.541305
v 0.548960 0.359699 0.548117
v 0.182214 0.774979 0.814004
v 0.257599 0.095760 0.739075
v 0.443966 0.116195 0.741329
v 0.368581 0.795415 0.816258
v 0.368581 0.815974 0.629891
v 0.443966 0.136755 0.554962
v 0.207043 0.302832 0.465502
v 0.182214 0.795539 0.627637
v 0.192272 0.397664 0.803819
v 0.199125 0.335916 0.797007
v 0.447615 0.363163 0.800013
v 0.440762 0.424911 0.806825
v 0.440762 0.452323 0.558335
v 0.447615 0.390576 0.551523
v 0.199125 0.363329 0.548517
v 0.192272 0.425076 0.555329
v 0.182214 0.795540 0.372362
v 0.257599 0.116313 0.447291
v 0.443966 0.136748 0.445037
v 0.368581 0.815975 0.370107
v 0.368581 0.795416 0.183738
v 0.443966 0.116189 0.258667
v 0.257599 0.095753 0.260922
v 0.182214 0.774980 0.185992
v 0.178886 0.517012 0.431383
v 0.185739 0.455264 0.438195
v 0.434229 0.482511 0.435189
v 0.427376 0.544259 0.428378
v 0.427376 0.516846 0.179885
v 0.434229 0.455098 0.186697
v 0.185739 0.427851 0.189703
v 0.178886 0.489599 0.182891
v 0.125000 1.000000 0.875000
v 0.125000 0.875000 0.875000
v 0.875000 0.875000 0.875000
v 0.875000 1.000000 0.875000
v 0.875000 1.000000 0.125000
v 0.875000 0.875000 0.125000
v 0.125000 0.875000 0.125000
v 0.125000 1.000000 0.125000
v 0.125000 1.000000 0.125000
v 0.125000 0.875000 0.125000
v 0.875000 0.875000 0.125000
v 0.875000 1.000000 0.125000
v 0.875000 1.000000 -0.000000
v 0.875000 0.875000 -0.000000
v 0.125000 0.875000 -0.000000
v 0.125000 1.000000 -0.000000
v 0.125000 1.000000 1.000000
v 0.125000 0.875000 1.000000
v 0.875000 0.875000 1.000000
v 0.875000 1.000000 1.000000
v 0.875000 1.000000 0.875000
v 0.875000 0.875000 0.875000
v 0.125000 0.875000 0.875000
v 0.125000 1.000000 0.875000
v 0.875000 1.000000 0.875000
v 0.875000 0.875000 0.875000
v 1.000000 0.875000 0.875000
v 1.000000 1.000000 0.875000
v 1.000000 1.000000 0.125000
v 1.000000 0.875000 0.125000
v 0.875000 0.875000 0.125000
v 0.875000 1.000000 0.125000
v 0.000000 1.000000 0.875000
v 0.000000 0.875000 0.875000
v 0.125000 0.875000 0.875000
v 0.125000 1.000000 0.875000
v 0.125000 1.000000 0.125000
v 0.125000 0.875000 0.125000
v 0.000000 0.875000 0.125000
v 0.000000 1.000000 0.125000
v 0.343750 1.062500 0.656250
v 0.343750 1.000000 0.656250
v 0.656250 1.000000 0.656250
v 0.656250 1.062500 0.656250
v 0.656250 1.062500 0.343750
v 0.656250 1.000000 0.343750
v 0.343750 1.000000 0.343750
v 0.343750 1.062500 0.343750
v 0.343667 1.062449 0.656250
v 0.255279 0.974061 0.656250
v 0.299473 0.929867 0.656250
v 0.387862 1.018255 0.656250
v 0.387862 1.018255 0.343750
v 0.299473 0.929867 0.343750
v 0.255279 0.974061 0.343750
v 0.343667 1.062449 0.343750
v 0.343750 1.062449 0.656332
v 0.343750 0.974061 0.744721
v 0.656250 0.974061 0.744721
v 0.656250 1.062449 0.656332
v 0.656250 1.018255 0.612138
v 0.656250 0.929866 0.700527
v 0.343750 0.929866 0.700527
v 0.343750 1.018255 0.612138
v 0.343750 1.018255 0.388125
v 0.343750 0.929867 0.299737
v 0.656250 0.929867 0.299737
v 0.656250 1.018255 0.388125
v 0.656250 1.062449 0.343931
v 0.656250 0.974061 0.255542
v 0.343750 0.974061 0.255542
v 0.343750 1.062449 0.343931
v 0.612138 1.018255 0.656250
v 0.700527 0.929867 0.656250
v 0.744721 0.974061 0.656250
v 0.656333 1.062449 0.656250
v 0.656333 1.062449 0.343750
v 0.744721 0.974061 0.343750
v 0.700527 0.929867 0.343750
v 0.612138 1.018255 0.343750
v 0.875000 1.187500 0.125000
v 0.875000 0.937500 0.125000
v 1.000000 0.937500 0.125000
v 1.000000 1.187500 0.125000
v 0.949112 1.173287 0.056847
v 1.000000 0.937500 -0.000000
v 0.875000 0.937500 -0.000000
v 0.875000 1.187500 -0.000000
v 0.027783 1.220262 0.927073
v 0.000000 0.937500 1.000000
v 0.123356 0.937500 1.000000
v 0.125000 1.187500 1.000000
v 0.125000 1.187500 0.875000
v 0.125000 0.937500 0.875000
v 0.000000 0.937500 0.875000
v 0.000000 1.187500 0.875000
v 0.000000 1.187500 1.000000
v 0.061015 1.187500 1.000070
v 0.000000 1.187500 0.937500
v 0.875000 1.187500 1.000000
v 0.875000 0.937500 1.000000
v 1.000000 0.937500 1.000000
v 0.939381 1.206412 0.935819
v 1.000000 1.187500 0.875000
v 1.000000 0.937500 0.875000
v 0.875000 0.937500 0.875000
v 0.875000 1.187500 0.875000
v 0.937500 1.187500 1.000000
v 0.573631 -0.418011 0.427359
v 0.000000 1.187500 0.125000
v 0.000000 0.937500 0.125000
v 0.125000 0.937500 0.125000
v 0.125000 1.187500 0.125000
v 0.125000 1.187500 -0.000000
v 0.125000 0.937500 -0.000000
v 0.000000 0.937500 -0.000000
v 0.053894 1.195227 0.061271
v 0.187500 0.875000 0.812500
v 0.187500 0.750000 0.812500
v 0.812500 0.750000 0.812500
v 0.812500 0.875000 0.812500
v 0.812500 0.875000 0.187500
v 0.812500 0.750000 0.187500
v 0.187500 0.750000 0.187500
v 0.187500 0.875000 0.187500
v 0.062500 0.875000 0.812500
v 0.062500 0.750000 0.812500
v 0.187500 0.750000 0.812500
v 0.187500 0.875000 0.812500
v 0.187500 0.875000 0.187500
v 0.187500 0.750000 0.187500
v 0.062500 0.750000 0.187500
v 0.062500 0.875000 0.187500
v 0.187500 0.875000 0.187500
v 0.187500 0.750000 0.187500
v 0.812500 0.750000 0.187500
v 0.812500 0.875000 0.187500
v 0.812500 0.875000 0.062500
v 0.812500 0.750000 0.062500
v 0.187500 0.750000 0.062500
v 0.187500 0.875000 0.062500
v 0.187500 0.875000 0.937500
v 0.187500 0.750000 0.937500
v 0.812500 0.750000 0.937500
v 0.812500 0.875000 0.937500
v 0.812500 0.875000 0.812500
v 0.812500 0.750000 0.812500
v 0.187500 0.750000 0.812500
v 0.187500 0.875000 0.812500
v 0.812500 0.875000 0.812500
v 0.812500 0.750000 0.812500
v 0.937500 0.750000 0.812500
v 0.937500 0.875000 0.812500
v 0.937500 0.875000 0.187500
v 0.937500 0.750000 0.187500
v 0.812500 0.750000 0.187500
v 0.812500 0.875000 0.187500
v 0.187500 0.125000 0.812500
v 0.187500 0.062500 0.812500
v 0.812500 0.062500 0.812500
v 0.812500 0.125000 0.812500
v 0.812500 0.125000 0.187500
v 0.812500 0.062500 0.187500
v 0.187500 0.062500 0.187500
v 0.187500 0.125000 0.187500
v 0.125000 0.187500 0.875000
v 0.125000 0.125000 0.875000
v 0.875000 0.125000 0.875000
v 0.875000 0.187500 0.875000
v 0.875000 0.187500 0.125000
v 0.875000 0.125000 0.125000
v 0.125000 0.125000 0.125000
v 0.125000 0.187500 0.125000
v 0.125000 0.187500 0.875000
v 0.125000 0.125000 0.875000
v 0.875000 0.125000 0.875000
v 0.875000 0.187500 0.875000
v 0.875000 0.187500 0.125000
v 0.875000 0.125000 0.125000
v 0.125000 0.125000 0.125000
v 0.125000 0.187500 0.125000
v 0.578840 0.643738 0.420547
v 0.573631 0.581989 0.427359
v 0.822124 0.554742 0.430365
v 0.828977 0.616490 0.423553
v 0.828977 0.589078 0.175061
v 0.822124 0.527329 0.181873
v 0.573631 0.554577 0.178867
v 0.580484 0.616325 0.172055
v 0.548960 0.332286 0.796607
v 0.542106 0.270538 0.789795
v 0.790599 0.243291 0.786789
v 0.797452 0.305039 0.793601
v 0.797452 0.332451 0.545111
v 0.790599 0.270704 0.538299
v 0.542106 0.297951 0.541305
v 0.548960 0.359699 0.548117
v 0.192272 0.397664 0.803819
v 0.199125 0.335916 0.797007
v 0.447615 0.363163 0.800013
v 0.440762 0.424911 0.806825
v 0.440762 0.452323 0.558335
v 0.447615 0.390576 0.551523
v 0.199125 0.363329 0.548517
v 0.192272 0.425076 0.555329
v 0.178886 0.517012 0.431383
v 0.185739 0.455264 0.438195
v 0.434229 0.482511 0.435189
v 0.427376 0.544259 0.428378
v 0.427376 0.516846 0.179885
v 0.434229 0.455098 0.186697
v 0.185739 0.427851 0.189703
v 0.178886 0.489599 0.182891
v 0.125000 1.000000 0.125000
v 0.125000 0.875000 0.125000
v 0.875000 0.875000 0.125000
v 0.875000 1.000000 0.125000
v 0.875000 1.000000 -0.000000
v 0.875000 0.875000 -0.000000
v 0.125000 0.875000 -0.000000
v 0.125000 1.000000 -0.000000
v 0.125000 1.000000 1.000000
v 0.125000 0.875000 1.000000
v 0.875000 0.875000 1.000000
v 0.875000 1.000000 1.000000
v 0.875000 1.000000 0.875000
v 0.875000 0.875000 0.875000
v 0.125000 0.875000 0.875000
v 0.125000 1.000000 0.875000
v 0.875000 1.000000 0.875000
v 0.875000 0.875000 0.875000
v 0.998356 0.875000 0.875000
v 1.000000 1.000000 0.875000
v 1.000000 1.000000 0.125000
v 1.000000 0.875000 0.125000
v 0.875000 0.875000 0.125000
v 0.875000 1.000000 0.125000
v -0.001644 1.000000 0.875000
v 0.000000 0.875000 0.875000
v 0.123356 0.875000 0.875000
v 0.125000 1.000000 0.875000
v 0.125000 1.000000 0.125000
v 0.125000 0.875000 0.125000
v 0.000000 0.875000 0.125000
v -0.001644 1.000000 0.125000
v 0.343750 1.062500 0.656250
v 0.343750 1.000000 0.656250
v 0.656250 1.000000 0.656250
v 0.656250 1.062500 0.656250
v 0.656250 1.062500 0.343750
v 0.656250 1.000000 0.343750
v 0.343750 1.000000 0.343750
v 0.343750 1.062500 0.343750
v 0.343667 1.062449 0.656250
v 0.255279 0.974061 0.656250
v 0.299473 0.929867 0.656250
v 0.387862 1.018255 0.656250
v 0.387862 1.018255 0.343750
v 0.299473 0.929867 0.343750
v 0.255279 0.974061 0.343750
v 0.343667 1.062449 0.343750
v 0.343750 1.062449 0.656332
v 0.343750 0.974061 0.744721
v 0.656250 0.974061 0.744721
v 0.656250 1.062449 0.656332
v 0.656250 1.018255 0.612138
v 0.656250 0.929866 0.700527
v 0.343750 0.929866 0.700527
v 0.343750 1.018255 0.612138
v 0.343750 1.018255 0.388125
v 0.343750 0.929867 0.299737
v 0.656250 0.929867 0.299737
v 0.656250 1.018255 0.388125
v 0.656250 1.062449 0.343931
v 0.656250 0.974061 0.255542
v 0.343750 0.974061 0.255542
v 0.343750 1.062449 0.343931
v 0.612138 1.018255 0.656250
v 0.700527 0.929867 0.656250
v 0.744721 0.974061 0.656250
v 0.656333 1.062449 0.656250
v 0.656333 1.062449 0.343750
v 0.744721 0.974061 0.343750
v 0.700527 0.929867 0.343750
v 0.612138 1.018255 0.343750
v 0.343667 1.062449 0.656250
v 0.255279 0.974061 0.656250
v 0.299473 0.929867 0.656250
v 0.387862 1.018255 0.656250
v 0.387862 1.018255 0.343750
v 0.299473 0.929867 0.343750
v 0.255279 0.974061 0.343750
v 0.343667 1.062449 0.343750
v 0.343750 1.062449 0.656332
v 0.343750 0.974061 0.744721
v 0.656250 0.974061 0.744721
v 0.656250 1.062449 0.656332
v 0.656250 1.018255 0.612138
v 0.656250 0.929866 0.700527
v 0.343750 0.929866 0.700527
v 0.343750 1.018255 0.612138
v 0.343750 1.018255 0.388125
v 0.343750 0.929867 0.299737
v 0.656250 0.929867 0.299737
v 0.656250 1.018255 0.388125
v 0.656250 1.062449 0.343931
v 0.656250 0.974061 0.255542
v 0.343750 0.974061 0.255542
v 0.343750 1.062449 0.343931
v 0.612138 1.018255 0.656250
v 0.700527 0.929867 0.656250
v 0.744721 0.974061 0.656250
v 0.656333 1.062449 0.656250
v 0.656333 1.062449 0.343750
v 0.744721 0.974061 0.343750
v 0.700527 0.929867 0.343750
v 0.612138 1.018255 0.343750
v 0.000000 1.187500 1.000000
v 0.062500 1.187500 1.000000
v 0.000000 1.187500 0.937500
v 0.434229 -0.517489 0.435189
v 0.062500 0.875000 0.812500
v 0.062500 0.750000 0.812500
v 0.187500 0.750000 0.812500
v 0.187500 0.875000 0.812500
v 0.187500 0.875000 0.187500
v 0.187500 0.750000 0.187500
v 0.062500 0.750000 0.187500
v 0.062500 0.875000 0.187500
v 0.187500 0.875000 0.187500
v 0.187500 0.750000 0.187500
v 0.812500 0.750000 0.187500
v 0.812500 0.875000 0.187500
v 0.812500 0.875000 0.062500
v 0.812500 0.750000 0.062500
v 0.187500 0.750000 0.062500
v 0.187500 0.875000 0.062500
v 0.187500 0.875000 0.937500
v 0.187500 0.750000 0.937500
v 0.812500 0.750000 0.937500
v 0.812500 0.875000 0.937500
v 0.812500 0.875000 0.812500
v 0.812500 0.750000 0.812500
v 0.187500 0.750000 0.812500
v 0.187500 0.875000 0.812500
v 0.812500 0.875000 0.812500
v 0.812500 0.750000 0.812500
v 0.937500 0.750000 0.812500
v 0.937500 0.875000 0.812500
v 0.937500 0.875000 0.187500
v 0.937500 0.750000 0.187500
v 0.812500 0.750000 0.187500
v 0.812500 0.875000 0.187500
v 0.448485 1.058270 0.324479
vn -0.0000 -0.0000 1.0000
vn -0.0000 -0.0000 -1.0000
vn -0.0000 1.0000 -0.0000
vn -0.0000 -1.0000 -0.0000
vn 1.0000 -0.0000 -0.0000
vn -1.0000 -0.0000 -0.0000
vn -0.0000 0.1097 0.9940
vn -0.0000 -0.1097 -0.9940
vn 0.1097 0.9880 -0.1090
vn -0.1097 -0.9880 0.1090
vn 0.9940 -0.1090 0.0120
vn -0.9940 0.1090 -0.0120
vn -0.0000 -0.1097 0.9940
vn -0.0000 0.1097 -0.9940
vn 0.1097 0.9880 0.1090
vn -0.1096 -0.9880 -0.1090
vn 0.9940 -0.1090 -0.0120
vn -0.9940 0.1090 0.0120
vn 0.2764 0.2132 -0.9371
vn -0.1097 0.9880 0.1090
vn -0.2146 -0.8845 -0.4142
vn 0.9940 0.1090 0.0120
vn -0.9934 -0.0973 0.0610
vn 0.1097 -0.9880 -0.1090
vn -0.9940 -0.1090 -0.0120
vn -0.1097 0.9880 -0.1090
vn 0.1097 -0.9880 0.1090
vn 0.9940 0.1090 -0.0120
vn -0.9940 -0.1090 0.0120
vn -0.0000 0.1096 0.9940
vn 0.7071 0.7071 -0.0000
vn -0.7071 -0.7071 -0.0000
vn 0.7071 -0.7071 -0.0000
vn -0.7071 0.7071 -0.0000
vn -0.0000 0.7071 0.7071
vn -0.0000 -0.7071 -0.7071
vn -0.0000 0.7071 -0.7071
vn -0.0000 -0.7071 0.7071
vn 0.2811 0.1405 -0.9493
vn 0.0989 0.9902 -0.0989
vn 0.9563 0.1308 -0.2616
vn -0.2910 0.1455 0.9456
vn 0.2096 0.9551 -0.2096
vn 1.0000 -0.0033 0.0066
vn -0.9874 0.0709 0.1418
vn 0.3036 0.1518 0.9406
vn -0.1477 0.9779 -0.1477
vn 0.9447 0.1466 0.2933
vn -0.2899 0.1449 -0.9460
vn 0.0571 0.9967 0.0571
vn -0.9544 0.1335 -0.2671
vn 0.1093 0.9881 -0.1086
vn -0.9953 0.0957 -0.0138
vn 1.0000 -0.0066 0.0011
vn -0.9999 -0.0132 -0.0000
vt 0.437500 0.015625
vt 0.437500 0.000000
vt 0.625000 0.000000
vt 0.625000 0.015625
vt 0.812500 0.015625
vt 0.812500 0.000000
vt 1.000000 0.000000
vt 1.000000 0.015625
vt 0.437500 0.203125
vt 0.625000 0.203125
vt 0.812500 0.203125
vt 0.250000 0.015625
vt 0.250000 0.000000
vt 0.531250 0.234375
vt 0.531250 0.218750
vt 0.687500 0.218750
vt 0.687500 0.234375
vt 0.843750 0.234375
vt 0.843750 0.218750
vt 1.000000 0.218750
vt 1.000000 0.234375
vt 0.531250 0.390625
vt 0.687500 0.390625
vt 0.843750 0.390625
vt 0.375000 0.234375
vt 0.375000 0.218750
vt 0.046875 0.171875
vt 0.046875 0.000000
vt 0.093750 0.000000
vt 0.093750 0.171875
vt 0.140625 0.171875
vt 0.140625 0.000000
vt 0.187500 0.000000
vt 0.187500 0.171875
vt 0.046875 0.218750
vt 0.093750 0.218750
vt 0.140625 0.218750
vt 0.000000 0.171875
vt 0.000000 0.000000
vt 0.609375 0.281250
vt 0.609375 0.265625
vt 0.671875 0.265625
vt 0.671875 0.281250
vt 0.734375 0.281250
vt 0.734375 0.265625
vt 0.796875 0.265625
vt 0.796875 0.281250
vt 0.609375 0.343750
vt 0.671875 0.343750
vt 0.734375 0.343750
vt 0.546875 0.281250
vt 0.546875 0.265625
vt 0.609375 0.234375
vt 0.609375 0.218750
vt 0.671875 0.218750
vt 0.671875 0.234375
vt 0.734375 0.234375
vt 0.734375 0.218750
vt 0.796875 0.218750
vt 0.796875 0.234375
vt 0.609375 0.296875
vt 0.671875 0.296875
vt 0.734375 0.296875
vt 0.546875 0.234375
vt 0.546875 0.218750
vt 0.609375 0.250000
vt 0.671875 0.250000
vt 0.734375 0.250000
vt 0.796875 0.250000
vt 0.609375 0.312500
vt 0.671875 0.312500
vt 0.734375 0.312500
vt 0.546875 0.250000
vt 0.609375 0.328125
vt 0.671875 0.328125
vt 0.734375 0.328125
vt 0.187500 0.812500
vt 0.187500 0.781250
vt 0.375000 0.781250
vt 0.375000 0.812500
vt 0.562500 0.812500
vt 0.562500 0.781250
vt 0.750000 0.781250
vt 0.750000 0.812500
vt 0.187500 1.000000
vt 0.375000 1.000000
vt 0.562500 1.000000
vt 0.000000 0.812500
vt 0.000000 0.781250
vt 0.593750 0.640625
vt 0.593750 0.609375
vt 0.781250 0.609375
vt 0.781250 0.640625
vt 0.812500 0.640625
vt 0.812500 0.609375
vt 1.000000 0.609375
vt 1.000000 0.640625
vt 0.593750 0.671875
vt 0.781250 0.671875
vt 0.968750 0.640625
vt 0.968750 0.671875
vt 0.562500 0.640625
vt 0.562500 0.609375
vt 0.593750 0.718750
vt 0.593750 0.687500
vt 0.781250 0.687500
vt 0.781250 0.718750
vt 0.812500 0.718750
vt 0.812500 0.687500
vt 1.000000 0.687500
vt 1.000000 0.718750
vt 0.593750 0.750000
vt 0.781250 0.750000
vt 0.968750 0.718750
vt 0.968750 0.750000
vt 0.562500 0.718750
vt 0.562500 0.687500
vt 0.187500 0.578125
vt 0.187500 0.546875
vt 0.218750 0.546875
vt 0.218750 0.578125
vt 0.406250 0.578125
vt 0.406250 0.546875
vt 0.437500 0.546875
vt 0.437500 0.578125
vt 0.187500 0.765625
vt 0.218750 0.765625
vt 0.250000 0.578125
vt 0.250000 0.765625
vt 0.000000 0.578125
vt 0.000000 0.546875
vt 0.078125 0.453125
vt 0.078125 0.437500
vt 0.156250 0.437500
vt 0.156250 0.453125
vt 0.234375 0.453125
vt 0.234375 0.437500
vt 0.312500 0.437500
vt 0.312500 0.453125
vt 0.078125 0.531250
vt 0.156250 0.531250
vt 0.234375 0.531250
vt 0.000000 0.453125
vt 0.000000 0.437500
vt 0.312500 0.062500
vt 0.312500 0.031250
vt 0.328125 0.031250
vt 0.328125 0.062500
vt 0.406250 0.062500
vt 0.406250 0.031250
vt 0.421875 0.031250
vt 0.421875 0.062500
vt 0.312500 0.140625
vt 0.328125 0.140625
vt 0.343750 0.062500
vt 0.343750 0.140625
vt 0.234375 0.062500
vt 0.234375 0.031250
vt 0.250000 0.187500
vt 0.250000 0.156250
vt 0.328125 0.156250
vt 0.328125 0.187500
vt 0.343750 0.187500
vt 0.343750 0.156250
vt 0.421875 0.156250
vt 0.421875 0.187500
vt 0.250000 0.203125
vt 0.328125 0.203125
vt 0.406250 0.187500
vt 0.406250 0.203125
vt 0.234375 0.187500
vt 0.234375 0.156250
vt 0.906250 0.093750
vt 0.906250 0.031250
vt 0.937500 0.031250
vt 0.937500 0.093750
vt 0.968750 0.093750
vt 0.968750 0.031250
vt 1.000000 0.031250
vt 1.000000 0.093750
vt 0.906250 0.125000
vt 0.937500 0.125000
vt 0.968750 0.125000
vt 0.875000 0.093750
vt 0.875000 0.031250
vt 0.531250 0.437500
vt 0.531250 0.406250
vt 0.687500 0.406250
vt 0.687500 0.437500
vt 0.843750 0.437500
vt 0.843750 0.406250
vt 1.000000 0.406250
vt 1.000000 0.437500
vt 0.531250 0.593750
vt 0.687500 0.593750
vt 0.843750 0.593750
vt 0.375000 0.437500
vt 0.375000 0.406250
vt 0.156250 0.265625
vt 0.156250 0.234375
vt 0.187500 0.234375
vt 0.187500 0.265625
vt 0.343750 0.265625
vt 0.343750 0.234375
vt 0.375000 0.265625
vt 0.156250 0.421875
vt 0.187500 0.421875
vt 0.218750 0.265625
vt 0.218750 0.421875
vt 0.000000 0.265625
vt 0.000000 0.234375
vt 0.625000 0.890625
vt 0.625000 0.859375
vt 0.781250 0.859375
vt 0.781250 0.890625
vt 0.812500 0.890625
vt 0.812500 0.859375
vt 0.968750 0.859375
vt 0.968750 0.890625
vt 0.625000 0.921875
vt 0.781250 0.921875
vt 0.937500 0.890625
vt 0.937500 0.921875
vt 0.593750 0.890625
vt 0.593750 0.859375
vt 0.625000 0.968750
vt 0.625000 0.937500
vt 0.781250 0.937500
vt 0.781250 0.968750
vt 0.812500 0.968750
vt 0.812500 0.937500
vt 0.968750 0.937500
vt 0.968750 0.968750
vt 0.625000 1.000000
vt 0.781250 1.000000
vt 0.937500 0.968750
vt 0.937500 1.000000
vt 0.593750 0.968750
vt 0.593750 0.937500
s 1
g BlockDemonCrystallizer.001_None
usemtl None
f 1/1/1 2/2/1 3/3/1 4/4/1
f 5/5/2 6/6/2 7/7/2 8/8/2
f 8/9/3 1/1/3 4/4/3 5/10/3
f 2/5/4 7/11/4 6/10/4 3/4/4
f 5/5/5 4/4/5 3/3/5 6/6/5
f 8/12/6 7/13/6 2/2/6 1/1/6
f 9/14/1 10/15/1 11/16/1 12/17/1
f 13/18/2 14/19/2 15/20/2 16/21/2
f 16/22/3 9/14/3 12/17/3 13/23/3
f 10/18/4 15/24/4 14/23/4 11/17/4
f 13/18/5 12/17/5 11/16/5 14/19/5
f 16/25/6 15/26/6 10/15/6 9/14/6
f 17/1/1 18/2/1 19/3/1 20/4/1
f 21/5/2 22/6/2 23/7/2 24/8/2
f 24/9/3 17/1/3 20/4/3 21/10/3
f 18/5/4 23/11/4 22/10/4 19/4/4
f 21/5/5 20/4/5 19/3/5 22/6/5
f 24/12/6 23/13/6 18/2/6 17/1/6
f 25/27/7 26/28/7 27/29/7 28/30/7
f 29/31/8 30/32/8 31/33/8 32/34/8
f 32/35/9 25/27/9 28/30/9 29/36/9
f 26/31/10 31/37/10 30/36/10 27/30/10
f 29/31/11 28/30/11 27/29/11 30/32/11
f 32/38/12 31/39/12 26/28/12 25/27/12
f 33/40/7 34/41/7 35/42/7 36/43/7
f 37/44/8 38/45/8 39/46/8 40/47/8
f 40/48/9 33/40/9 36/43/9 37/49/9
f 34/44/10 39/50/10 38/49/10 35/43/10
f 37/44/11 36/43/11 35/42/11 38/45/11
f 40/51/12 39/52/12 34/41/12 33/40/12
f 41/27/13 42/28/13 43/29/13 44/30/13
f 45/31/14 46/32/14 47/33/14 48/34/14
f 48/35/15 41/27/15 44/30/15 45/36/15
f 42/31/16 47/37/16 46/36/16 43/30/16
f 45/31/17 44/30/17 43/29/17 46/32/17
f 48/38/18 47/39/18 42/28/18 41/27/18
f 49/53/13 50/54/13 51/55/13 52/56/13
f 53/57/14 54/58/14 55/59/14 56/60/14
f 56/61/15 49/53/15 52/56/15 53/62/15
f 50/57/16 55/63/16 54/62/16 51/56/16
f 53/57/17 52/56/17 51/55/17 54/58/17
f 56/64/18 55/65/18 50/54/18 49/53/18
f 57/27/13 58/28/13 59/29/13 60/30/13
f 61/31/19 62/32/19 63/33/19 64/34/19
f 64/35/20 57/27/20 60/30/20 61/36/20
f 58/31/21 63/37/21 62/36/21 59/30/21
f 61/31/22 60/30/22 59/29/22 62/32/22
f 64/38/23 63/39/23 58/28/23 57/27/23
f 65/66/13 66/53/13 67/56/13 68/67/13
f 69/68/14 70/57/14 71/60/14 72/69/14
f 72/70/20 65/66/20 68/67/20 69/71/20
f 66/68/24 71/72/24 70/71/24 67/67/24
f 69/68/22 68/67/22 67/56/22 70/57/22
f 72/73/25 71/64/25 66/53/25 65/66/25
f 73/27/7 74/28/7 75/29/7 76/30/7
f 77/31/8 78/32/8 79/33/8 80/34/8
f 80/35/26 73/27/26 76/30/26 77/36/26
f 74/31/27 79/37/27 78/36/27 75/30/27
f 77/31/28 76/30/28 75/29/28 78/32/28
f 80/38/29 79/39/29 74/28/29 73/27/29
f 81/41/30 82/66/30 83/67/30 84/42/30
f 85/45/8 86/68/8 87/69/8 88/46/8
f 88/74/26 81/41/26 84/42/26 85/75/26
f 82/45/27 87/76/27 86/75/27 83/42/27
f 85/45/28 84/42/28 83/67/28 86/68/28
f 88/52/29 87/73/29 82/66/29 81/41/29
f 89/77/1 90/78/1 91/79/1 92/80/1
f 93/81/2 94/82/2 95/83/2 96/84/2
f 96/85/3 89/77/3 92/80/3 93/86/3
f 90/81/4 95/87/4 94/86/4 91/80/4
f 93/81/5 92/80/5 91/79/5 94/82/5
f 96/88/6 95/89/6 90/78/6 89/77/6
f 97/90/1 98/91/1 99/92/1 100/93/1
f 101/94/2 102/95/2 103/96/2 104/97/2
f 104/98/3 97/90/3 100/93/3 101/99/3
f 98/100/4 103/101/4 102/99/4 99/93/4
f 101/94/5 100/93/5 99/92/5 102/95/5
f 104/102/6 103/103/6 98/91/6 97/90/6
f 105/104/1 106/105/1 107/106/1 108/107/1
f 109/108/2 110/109/2 111/110/2 112/111/2
f 112/112/3 105/104/3 108/107/3 109/113/3
f 106/114/4 111/115/4 110/113/4 107/107/4
f 109/108/5 108/107/5 107/106/5 110/109/5
f 112/116/6 111/117/6 106/105/6 105/104/6
f 113/118/1 114/119/1 115/120/1 116/121/1
f 117/122/2 118/123/2 119/124/2 120/125/2
f 120/126/3 113/118/3 116/121/3 117/127/3
f 114/128/4 119/129/4 118/127/4 115/121/4
f 117/122/5 116/121/5 115/120/5 118/123/5
f 120/130/6 119/131/6 114/119/6 113/118/6
f 121/118/1 122/119/1 123/120/1 124/121/1
f 125/122/2 126/123/2 127/124/2 128/125/2
f 128/126/3 121/118/3 124/121/3 125/127/3
f 122/128/4 127/129/4 126/127/4 123/121/4
f 125/122/5 124/121/5 123/120/5 126/123/5
f 128/130/6 127/131/6 122/119/6 121/118/6
f 129/132/1 130/133/1 131/134/1 132/135/1
f 133/136/2 134/137/2 135/138/2 136/139/2
f 136/140/3 129/132/3 132/135/3 133/141/3
f 130/136/4 135/142/4 134/141/4 131/135/4
f 133/136/5 132/135/5 131/134/5 134/137/5
f 136/143/6 135/144/6 130/133/6 129/132/6
f 137/145/1 138/146/1 139/147/1 140/148/1
f 141/149/2 142/150/2 143/151/2 144/152/2
f 144/153/31 137/145/31 140/148/31 141/154/31
f 138/155/32 143/156/32 142/154/32 139/148/32
f 141/149/33 140/148/33 139/147/33 142/150/33
f 144/157/34 143/158/34 138/146/34 137/145/34
f 145/159/35 146/160/35 147/161/35 148/162/35
f 149/163/36 150/164/36 151/165/36 152/166/36
f 152/167/37 145/159/37 148/162/37 149/168/37
f 146/169/38 151/170/38 150/168/38 147/162/38
f 149/163/5 148/162/5 147/161/5 150/164/5
f 152/171/6 151/172/6 146/160/6 145/159/6
f 153/159/38 154/160/38 155/161/38 156/162/38
f 157/163/37 158/164/37 159/165/37 160/166/37
f 160/167/35 153/159/35 156/162/35 157/168/35
f 154/169/36 159/170/36 158/168/36 155/162/36
f 157/163/5 156/162/5 155/161/5 158/164/5
f 160/171/6 159/172/6 154/160/6 153/159/6
f 161/145/1 162/146/1 163/147/1 164/148/1
f 165/149/2 166/150/2 167/151/2 168/152/2
f 168/153/34 161/145/34 164/148/34 165/154/34
f 162/155/33 167/156/33 166/154/33 163/148/33
f 165/149/31 164/148/31 163/147/31 166/150/31
f 168/157/32 167/158/32 162/146/32 161/145/32
f 169/173/1 170/174/1 171/175/1 172/176/1
f 173/177/39 174/178/39 175/179/39 176/180/39
f 176/181/40 169/173/40 172/176/40 173/182/40
f 170/177/4 175/183/4 174/182/4 171/176/4
f 173/177/41 172/176/41 171/175/41 174/178/41
f 176/184/6 175/185/6 170/174/6 169/173/6
f 177/173/42 178/174/42 179/175/42 180/176/42
f 181/177/2 182/178/2 183/179/2 184/180/2
f 184/181/43 177/173/43 180/176/43 181/182/43
f 178/177/4 183/183/4 182/182/4 179/176/4
f 181/177/44 180/176/44 179/175/44 182/178/44
f 184/184/45 183/185/45 178/174/45 177/173/45
f 188/173/46 189/174/46 190/175/46 191/176/46
f 192/177/2 193/178/2 194/179/2 195/180/2
f 195/181/47 188/173/47 191/176/47 192/182/47
f 189/177/4 194/183/4 193/182/4 190/176/4
f 192/177/48 191/176/48 190/175/48 193/178/48
f 195/184/6 194/185/6 189/174/6 188/173/6
f 198/173/1 199/174/1 200/175/1 201/176/1
f 202/177/49 203/178/49 204/179/49 205/180/49
f 205/181/50 198/173/50 201/176/50 202/182/50
f 199/177/4 204/183/4 203/182/4 200/176/4
f 202/177/5 201/176/5 200/175/5 203/178/5
f 205/184/51 204/185/51 199/174/51 198/173/51
f 206/186/1 207/187/1 208/188/1 209/189/1
f 210/190/2 211/191/2 212/192/2 213/193/2
f 213/194/3 206/186/3 209/189/3 210/195/3
f 207/190/4 212/196/4 211/195/4 208/189/4
f 210/190/5 209/189/5 208/188/5 211/191/5
f 213/197/6 212/198/6 207/187/6 206/186/6
f 214/199/1 215/200/1 216/201/1 217/202/1
f 218/203/2 219/204/2 220/25/2 221/205/2
f 221/206/3 214/199/3 217/202/3 218/207/3
f 215/208/4 220/209/4 219/207/4 216/202/4
f 218/203/5 217/202/5 216/201/5 219/204/5
f 221/210/6 220/211/6 215/200/6 214/199/6
f 222/212/1 223/213/1 224/214/1 225/215/1
f 226/216/2 227/217/2 228/218/2 229/219/2
f 229/220/3 222/212/3 225/215/3 226/221/3
f 223/222/4 228/223/4 227/221/4 224/215/4
f 226/216/5 225/215/5 224/214/5 227/217/5
f 229/224/6 228/225/6 223/213/6 222/212/6
f 230/226/1 231/227/1 232/228/1 233/229/1
f 234/230/2 235/231/2 236/232/2 237/233/2
f 237/234/3 230/226/3 233/229/3 234/235/3
f 231/236/4 236/237/4 235/235/4 232/229/4
f 234/230/5 233/229/5 232/228/5 235/231/5
f 237/238/6 236/239/6 231/227/6 230/226/6
f 238/199/1 239/200/1 240/201/1 241/202/1
f 242/203/2 243/204/2 244/25/2 245/205/2
f 245/206/3 238/199/3 241/202/3 242/207/3
f 239/208/4 244/209/4 243/207/4 240/202/4
f 242/203/5 241/202/5 240/201/5 243/204/5
f 245/210/6 244/211/6 239/200/6 238/199/6
f 246/14/1 247/15/1 248/16/1 249/17/1
f 250/18/2 251/19/2 252/20/2 253/21/2
f 253/22/3 246/14/3 249/17/3 250/23/3
f 247/18/4 252/24/4 251/23/4 248/17/4
f 250/18/5 249/17/5 248/16/5 251/19/5
f 253/25/6 252/26/6 247/15/6 246/14/6
f 254/1/1 255/2/1 256/3/1 257/4/1
f 258/5/2 259/6/2 260/7/2 261/8/2
f 261/9/3 254/1/3 257/4/3 258/10/3
f 255/5/4 260/11/4 259/10/4 256/4/4
f 258/5/5 257/4/5 256/3/5 259/6/5
f 261/12/6 260/13/6 255/2/6 254/1/6
f 262/1/1 263/2/1 264/3/1 265/4/1
f 266/5/2 267/6/2 268/7/2 269/8/2
f 269/9/3 262/1/3 265/4/3 266/10/3
f 263/5/4 268/11/4 267/10/4 264/4/4
f 266/5/5 265/4/5 264/3/5 267/6/5
f 269/12/6 268/13/6 263/2/6 262/1/6
f 270/40/7 271/41/7 272/42/7 273/43/7
f 274/44/8 275/45/8 276/46/8 277/47/8
f 277/48/52 270/40/52 273/43/52 274/49/52
f 271/44/10 276/50/10 275/49/10 272/43/10
f 274/44/11 273/43/11 272/42/11 275/45/11
f 277/51/53 276/52/53 271/41/53 270/40/53
f 278/53/13 279/54/13 280/55/13 281/56/13
f 282/57/14 283/58/14 284/59/14 285/60/14
f 285/61/15 278/53/15 281/56/15 282/62/15
f 279/57/16 284/63/16 283/62/16 280/56/16
f 282/57/17 281/56/17 280/55/17 283/58/17
f 285/64/18 284/65/18 279/54/18 278/53/18
f 286/66/13 287/53/13 288/56/13 289/67/13
f 290/68/14 291/57/14 292/60/14 293/69/14
f 293/70/20 286/66/20 289/67/20 290/71/20
f 287/68/24 292/72/24 291/71/24 288/67/24
f 290/68/22 289/67/22 288/56/22 291/57/22
f 293/73/25 292/64/25 287/53/25 286/66/25
f 294/41/30 295/66/30 296/67/30 297/42/30
f 298/45/8 299/68/8 300/69/8 301/46/8
f 301/74/26 294/41/26 297/42/26 298/75/26
f 295/45/27 300/76/27 299/75/27 296/42/27
f 298/45/28 297/42/28 296/67/28 299/68/28
f 301/52/29 300/73/29 295/66/29 294/41/29
f 302/90/1 303/91/1 304/92/1 305/93/1
f 306/94/2 307/95/2 308/96/2 309/97/2
f 309/98/3 302/90/3 305/93/3 306/99/3
f 303/100/4 308/101/4 307/99/4 304/93/4
f 306/94/5 305/93/5 304/92/5 307/95/5
f 309/102/6 308/103/6 303/91/6 302/90/6
f 310/104/1 311/105/1 312/106/1 313/107/1
f 314/108/2 315/109/2 316/110/2 317/111/2
f 317/112/3 310/104/3 313/107/3 314/113/3
f 311/114/4 316/115/4 315/113/4 312/107/4
f 314/108/5 313/107/5 312/106/5 315/109/5
f 317/116/6 316/117/6 311/105/6 310/104/6
f 318/118/1 319/119/1 320/120/1 321/121/1
f 322/122/2 323/123/2 324/124/2 325/125/2
f 325/126/3 318/118/3 321/121/3 322/127/3
f 319/128/4 324/129/4 323/127/4 320/121/4
f 322/122/54 321/121/54 320/120/54 323/123/54
f 325/130/6 324/131/6 319/119/6 318/118/6
f 326/118/1 327/119/1 328/120/1 329/121/1
f 330/122/2 331/123/2 332/124/2 333/125/2
f 333/126/3 326/118/3 329/121/3 330/127/3
f 327/128/4 332/129/4 331/127/4 328/121/4
f 330/122/54 329/121/54 328/120/54 331/123/54
f 333/130/55 332/131/55 327/119/55 326/118/55
f 334/132/1 335/133/1 336/134/1 337/135/1
f 338/136/2 339/137/2 340/138/2 341/139/2
f 341/140/3 334/132/3 337/135/3 338/141/3
f 335/136/4 340/142/4 339/141/4 336/135/4
f 338/136/5 337/135/5 336/134/5 339/137/5
f 341/143/6 340/144/6 335/133/6 334/132/6
f 342/145/1 343/146/1 344/147/1 345/148/1
f 346/149/2 347/150/2 348/151/2 349/152/2
f 349/153/31 342/145/31 345/148/31 346/154/31
f 343/155/32 348/156/32 347/154/32 344/148/32
f 346/149/33 345/148/33 344/147/33 347/150/33
f 349/157/34 348/158/34 343/146/34 342/145/34
f 350/159/35 351/160/35 352/161/35 353/162/35
f 354/163/36 355/164/36 356/165/36 357/166/36
f 357/167/37 350/159/37 353/162/37 354/168/37
f 351/169/38 356/170/38 355/168/38 352/162/38
f 354/163/5 353/162/5 352/161/5 355/164/5
f 357/171/6 356/172/6 351/160/6 350/159/6
f 358/159/38 359/160/38 360/161/38 361/162/38
f 362/163/37 363/164/37 364/165/37 365/166/37
f 365/167/35 358/159/35 361/162/35 362/168/35
f 359/169/36 364/170/36 363/168/36 360/162/36
f 362/163/5 361/162/5 360/161/5 363/164/5
f 365/171/6 364/172/6 359/160/6 358/159/6
f 366/145/1 367/146/1 368/147/1 369/148/1
f 370/149/2 371/150/2 372/151/2 373/152/2
f 373/153/34 366/145/34 369/148/34 370/154/34
f 367/155/33 372/156/33 371/154/33 368/148/33
f 370/149/31 369/148/31 368/147/31 371/150/31
f 373/157/32 372/158/32 367/146/32 366/145/32
f 374/145/1 375/146/1 376/147/1 377/148/1
f 378/149/2 379/150/2 380/151/2 381/152/2
f 381/153/31 374/145/31 377/148/31 378/154/31
f 375/155/32 380/156/32 379/154/32 376/148/32
f 378/149/33 377/148/33 376/147/33 379/150/33
f 381/157/34 380/158/34 375/146/34 374/145/34
f 382/159/35 383/160/35 384/161/35 385/162/35
f 386/163/36 387/164/36 388/165/36 389/166/36
f 389/167/37 382/159/37 385/162/37 386/168/37
f 383/169/38 388/170/38 387/168/38 384/162/38
f 386/163/5 385/162/5 384/161/5 387/164/5
f 389/171/6 388/172/6 383/160/6 382/159/6
f 390/159/38 391/160/38 392/161/38 393/162/38
f 394/163/37 395/164/37 396/165/37 397/166/37
f 397/167/35 390/159/35 393/162/35 394/168/35
f 391/169/36 396/170/36 395/168/36 392/162/36
f 394/163/5 393/162/5 392/161/5 395/164/5
f 397/171/6 396/172/6 391/160/6 390/159/6
f 398/145/1 399/146/1 400/147/1 401/148/1
f 402/149/2 403/150/2 404/151/2 405/152/2
f 405/153/34 398/145/34 401/148/34 402/154/34
f 399/155/33 404/156/33 403/154/33 400/148/33
f 402/149/31 401/148/31 400/147/31 403/150/31
f 405/157/32 404/158/32 399/146/32 398/145/32
f 410/199/1 411/200/1 412/201/1 413/202/1
f 414/203/2 415/204/2 416/25/2 417/205/2
f 417/206/3 410/199/3 413/202/3 414/207/3
f 411/208/4 416/209/4 415/207/4 412/202/4
f 414/203/5 413/202/5 412/201/5 415/204/5
f 417/210/6 416/211/6 411/200/6 410/199/6
f 418/212/1 419/213/1 420/214/1 421/215/1
f 422/216/2 423/217/2 424/218/2 425/219/2
f 425/220/3 418/212/3 421/215/3 422/221/3
f 419/222/4 424/223/4 423/221/4 420/215/4
f 422/216/5 421/215/5 420/214/5 423/217/5
f 425/224/6 424/225/6 419/213/6 418/212/6
f 426/226/1 427/227/1 428/228/1 429/229/1
f 430/230/2 431/231/2 432/232/2 433/233/2
f 433/234/3 426/226/3 429/229/3 430/235/3
f 427/236/4 432/237/4 431/235/4 428/229/4
f 430/230/5 429/229/5 428/228/5 431/231/5
f 433/238/6 432/239/6 427/227/6 426/226/6
f 434/199/1 435/200/1 436/201/1 437/202/1
f 438/203/2 439/204/2 440/25/2 441/205/2
f 441/206/3 434/199/3 437/202/3 438/207/3
f 435/208/4 440/209/4 439/207/4 436/202/4
f 438/203/5 437/202/5 436/201/5 439/204/5
f 441/210/6 440/211/6 435/200/6 434/199/6
l 185 186
l 185 187
l 271 197
l 406 407
l 406 408
l 296 409
l 397 442
